<svg width="99" height="21" viewBox="0 0 99 21" fill="none" xmlns="http://www.w3.org/2000/svg">
<path id="Combined Shape" fill-rule="evenodd" clip-rule="evenodd" d="M35.1118 14.6288C35.6318 13.3988 35.8908 12.0238 35.8908 10.5028C35.8908 8.86276 35.6368 7.43176 35.1258 6.21176C34.6158 4.99176 33.9108 3.97576 33.0108 3.16576C32.1098 2.35476 31.0498 1.75076 29.8288 1.35076C28.6088 0.949756 27.2988 0.749756 25.8988 0.749756C24.4978 0.749756 23.1828 0.974756 21.9518 1.42476C20.7218 1.87476 19.6518 2.53076 18.7408 3.39076C17.8308 4.25076 17.1158 5.28676 16.5958 6.49676C16.0748 7.70676 15.8158 9.08276 15.8158 10.6228C15.8158 12.2638 16.0708 13.6938 16.5808 14.9148C17.0908 16.1348 17.7958 17.1498 18.6968 17.9598C19.5958 18.7708 20.6568 19.3808 21.8768 19.7908C23.0968 20.2008 24.4078 20.4058 25.8078 20.4058C27.2088 20.4058 28.5238 20.1758 29.7538 19.7158C30.9848 19.2558 32.0548 18.6008 32.9658 17.7498C33.8758 16.8998 34.5908 15.8598 35.1118 14.6288ZM28.8998 6.83476C29.5988 7.81076 29.9498 9.07376 29.9498 10.6238C29.9498 12.1328 29.6138 13.3698 28.9448 14.3358C28.2738 15.3018 27.2588 15.7848 25.8988 15.7848C25.2188 15.7848 24.6178 15.6538 24.0978 15.3928C23.5768 15.1308 23.1468 14.7688 22.8068 14.3058C22.4678 13.8428 22.2068 13.2898 22.0268 12.6458C21.8468 12.0018 21.7568 11.2878 21.7568 10.5028C21.7568 8.99376 22.0868 7.76076 22.7478 6.80576C23.4078 5.84976 24.4278 5.37176 25.8078 5.37176C27.1678 5.37176 28.1988 5.85976 28.8998 6.83476ZM11.4488 18.4705C10.2788 19.7615 8.44282 20.4065 5.94182 20.4065C4.80182 20.4065 3.70082 20.2815 2.64082 20.0315C1.57982 19.7815 0.699817 19.4565 -0.000183105 19.0555L1.23082 14.4945C1.89082 14.8345 2.52582 15.0995 3.13582 15.2895C3.74582 15.4795 4.31182 15.5745 4.83182 15.5745C5.75182 15.5745 6.39182 15.3395 6.75182 14.8695C7.11182 14.3995 7.29282 13.5845 7.29282 12.4235V1.19946H13.2038V12.8735C13.2038 15.3145 12.6188 17.1795 11.4488 18.4705ZM57.1977 1.19996H51.7057V11.853L45.0437 1.19996H38.6817V19.956H44.1737V9.33196L50.9257 20.136H57.1977V1.19996ZM73.4327 19.9554H79.2847L72.9527 1.20036H65.4197L58.9677 19.9554H64.7897L65.8997 16.4454H72.2617L73.4327 19.9554ZM67.0407 12.0034L69.1407 5.43136L71.1217 12.0034H67.0407ZM93.0885 12.9639V19.9559H99.0005V1.19986H93.0885V8.04186H86.9665V1.19986H81.0545V19.9559H86.9665V12.9639H93.0885Z" fill="#282827"/>
</svg>
