<svg width="120" height="27" viewBox="0 0 120 27" fill="none" xmlns="http://www.w3.org/2000/svg">
<path id="Combined Shape" fill-rule="evenodd" clip-rule="evenodd" d="M42.5598 18.7715C43.1901 17.1784 43.504 15.3974 43.504 13.4274C43.504 11.3032 43.1961 9.4497 42.5767 7.86951C41.9585 6.28932 41.104 4.97336 40.0131 3.92422C38.921 2.87378 37.6361 2.09146 36.1561 1.57336C34.6773 1.05397 33.0895 0.794922 31.3925 0.794922C29.6943 0.794922 28.1004 1.08635 26.6082 1.66921C25.1173 2.25206 23.8204 3.10174 22.7161 4.21565C21.6131 5.32955 20.7464 6.67142 20.1161 8.23866C19.4846 9.80589 19.1707 11.5881 19.1707 13.5828C19.1707 15.7083 19.4798 17.5605 20.0979 19.142C20.7161 20.7222 21.5707 22.0368 22.6628 23.086C23.7525 24.1364 25.0385 24.9265 26.5173 25.4576C27.9961 25.9886 29.5852 26.2541 31.2822 26.2541C32.9804 26.2541 34.5743 25.9562 36.0652 25.3604C37.5573 24.7646 38.8543 23.9162 39.9585 22.814C41.0616 21.713 41.9282 20.366 42.5598 18.7715ZM35.0301 8.67645C35.8773 9.9406 36.3028 11.5765 36.3028 13.5841C36.3028 15.5386 35.8955 17.1408 35.0846 18.392C34.2713 19.6432 33.041 20.2688 31.3925 20.2688C30.5682 20.2688 29.8398 20.0991 29.2095 19.7611C28.5779 19.4217 28.0567 18.9529 27.6446 18.3532C27.2337 17.7535 26.9173 17.0372 26.6992 16.2031C26.481 15.3689 26.3719 14.4441 26.3719 13.4274C26.3719 11.4729 26.7719 9.87584 27.5731 8.63888C28.3731 7.40064 29.6095 6.78151 31.2822 6.78151C32.9307 6.78151 34.1804 7.41359 35.0301 8.67645ZM13.8773 23.7474C12.4591 25.4196 10.2337 26.255 7.20218 26.255C5.82036 26.255 4.48582 26.0931 3.20097 25.7693C1.91491 25.4455 0.848241 25.0246 -0.000244141 24.5052L1.49188 18.5976C2.29188 19.038 3.06157 19.3812 3.80097 19.6273C4.54036 19.8734 5.22642 19.9964 5.85672 19.9964C6.97188 19.9964 7.74763 19.6921 8.184 19.0833C8.62036 18.4745 8.83976 17.4189 8.83976 15.9151V1.37739H16.0046V16.498C16.0046 19.6597 15.2955 22.0753 13.8773 23.7474ZM69.3305 1.37804H62.6736V15.1762L54.5984 1.37804H46.8869V25.6715H53.5439V11.9109L61.7281 25.9047H69.3305V1.37804ZM89.0093 25.6707H96.1027L88.4275 1.37856H79.2966L71.476 25.6707H78.533L79.8784 21.1245H87.5899L89.0093 25.6707ZM81.2615 15.371L83.8069 6.85871L86.2081 15.371H81.2615ZM112.835 16.6151V25.6714H120.001V1.37791H112.835V10.2399H105.414V1.37791H98.2479V25.6714H105.414V16.6151H112.835Z" fill="#F3F2F0"/>
</svg>
